<svg width="222" height="71" viewBox="0 0 222 71" fill="none" xmlns="http://www.w3.org/2000/svg">
<rect width="222" height="71" fill="white"/>
<path d="M39.1191 36.5486H37.1152V39.9998H35.9844V31.4685H38.8086C39.7695 31.4685 40.5078 31.6873 41.0234 32.1248C41.543 32.5623 41.8027 33.199 41.8027 34.0349C41.8027 34.5662 41.6582 35.0291 41.3691 35.4236C41.084 35.8181 40.6855 36.113 40.1738 36.3083L42.1777 39.9294V39.9998H40.9707L39.1191 36.5486ZM37.1152 35.6287H38.8438C39.4023 35.6287 39.8457 35.4841 40.1738 35.1951C40.5059 34.906 40.6719 34.5193 40.6719 34.0349C40.6719 33.5076 40.5137 33.1033 40.1973 32.822C39.8848 32.5408 39.4316 32.3982 38.8379 32.3943H37.1152V35.6287ZM50.607 36.0564H46.9098V39.0798H51.2047V39.9998H45.7848V31.4685H51.1461V32.3943H46.9098V35.1365H50.607V36.0564ZM59.716 37.7732H56.1418L55.3391 39.9998H54.1789L57.4367 31.4685H58.4211L61.6848 39.9998H60.5305L59.716 37.7732ZM56.4816 36.8474H59.382L57.9289 32.8572L56.4816 36.8474ZM65.2332 39.9998V31.4685H67.6414C68.3836 31.4685 69.0398 31.6326 69.6102 31.9607C70.1805 32.2888 70.6199 32.7556 70.9285 33.3611C71.241 33.9666 71.3992 34.6619 71.4031 35.447V35.9919C71.4031 36.7966 71.2469 37.5017 70.9344 38.1072C70.6258 38.7126 70.1824 39.1775 69.6043 39.5017C69.0301 39.8259 68.3602 39.9919 67.5945 39.9998H65.2332ZM66.3582 32.3943V39.0798H67.5418C68.409 39.0798 69.0828 38.8103 69.5633 38.2712C70.0477 37.7322 70.2898 36.9646 70.2898 35.9685V35.4705C70.2898 34.5017 70.0613 33.7498 69.6043 33.2146C69.1512 32.6755 68.5066 32.4021 67.6707 32.3943H66.3582ZM82.3379 31.4685L85.127 38.4294L87.916 31.4685H89.375V39.9998H88.25V36.6775L88.3555 33.0916L85.5547 39.9998H84.6934L81.8984 33.1091L82.0098 36.6775V39.9998H80.8848V31.4685H82.3379ZM100.324 36.0095C100.324 36.8455 100.183 37.5759 99.902 38.2009C99.6207 38.822 99.2223 39.2966 98.7066 39.6248C98.191 39.9529 97.5895 40.1169 96.902 40.1169C96.2301 40.1169 95.6344 39.9529 95.1148 39.6248C94.5953 39.2927 94.191 38.822 93.902 38.2126C93.6168 37.5994 93.4703 36.8904 93.4625 36.0857V35.4705C93.4625 34.6501 93.6051 33.9255 93.8902 33.2966C94.1754 32.6677 94.5777 32.1873 95.0973 31.8552C95.6207 31.5193 96.2184 31.3513 96.8902 31.3513C97.5738 31.3513 98.1754 31.5173 98.6949 31.8494C99.2184 32.1775 99.6207 32.656 99.902 33.2849C100.183 33.9099 100.324 34.6384 100.324 35.4705V36.0095ZM99.2047 35.4587C99.2047 34.447 99.0016 33.6716 98.5953 33.1326C98.1891 32.5896 97.6207 32.3181 96.8902 32.3181C96.1793 32.3181 95.6188 32.5896 95.2086 33.1326C94.8023 33.6716 94.5934 34.4216 94.5816 35.3826V36.0095C94.5816 36.99 94.7867 37.7615 95.1969 38.324C95.6109 38.8826 96.1793 39.1619 96.902 39.1619C97.6285 39.1619 98.191 38.8982 98.5895 38.3708C98.9879 37.8396 99.193 37.0798 99.2047 36.0916V35.4587ZM107.54 36.5486H105.536V39.9998H104.405V31.4685H107.23C108.191 31.4685 108.929 31.6873 109.445 32.1248C109.964 32.5623 110.224 33.199 110.224 34.0349C110.224 34.5662 110.079 35.0291 109.79 35.4236C109.505 35.8181 109.107 36.113 108.595 36.3083L110.599 39.9294V39.9998H109.392L107.54 36.5486ZM105.536 35.6287H107.265C107.823 35.6287 108.267 35.4841 108.595 35.1951C108.927 34.906 109.093 34.5193 109.093 34.0349C109.093 33.5076 108.935 33.1033 108.618 32.822C108.306 32.5408 107.853 32.3982 107.259 32.3943H105.536V35.6287ZM119.028 36.0564H115.331V39.0798H119.626V39.9998H114.206V31.4685H119.567V32.3943H115.331V35.1365H119.028V36.0564Z" fill="#333333"/>
<path fill-rule="evenodd" clip-rule="evenodd" d="M137 35.4998C137 35.2236 137.224 34.9998 137.5 34.9998L153.5 34.9998C153.776 34.9998 154 35.2236 154 35.4998C154 35.7759 153.776 35.9998 153.5 35.9998L137.5 35.9998C137.224 35.9998 137 35.7759 137 35.4998Z" fill="#333333"/>
<path fill-rule="evenodd" clip-rule="evenodd" d="M149.646 31.6462C149.842 31.4509 150.158 31.4509 150.354 31.6462L154.207 35.4998L150.354 39.3533C150.158 39.5486 149.842 39.5486 149.646 39.3533C149.451 39.158 149.451 38.8415 149.646 38.6462L152.793 35.4998L149.646 32.3533C149.451 32.158 149.451 31.8415 149.646 31.6462Z" fill="#333333"/>
</svg>
