<?xml version="1.0" standalone="no"?>
<!DOCTYPE svg PUBLIC "-//W3C//DTD SVG 20010904//EN"
 "http://www.w3.org/TR/2001/REC-SVG-20010904/DTD/svg10.dtd">
<svg version="1.0" xmlns="http://www.w3.org/2000/svg"
 width="300.000000pt" height="300.000000pt" viewBox="0 0 300.000000 300.000000"
 preserveAspectRatio="xMidYMid meet">
<metadata>
Created by potrace 1.14, written by Peter Selinger 2001-2017
</metadata>
<g transform="translate(0.000000,300.000000) scale(0.100000,-0.100000)"
fill="#000000" stroke="none">
<path d="M1398 2990 c-48 -15 -87 -44 -103 -75 -11 -25 -14 -75 -14 -236 l1
-205 46 1 47 0 0 -90 0 -89 -55 -12 c-328 -68 -458 -341 -257 -536 l50 -48
-206 -343 c-112 -188 -268 -447 -345 -576 -138 -229 -142 -237 -202 -420 -34
-102 -64 -193 -67 -201 -3 -8 -7 -19 -9 -25 -1 -5 -9 -30 -18 -54 -9 -24 -15
-45 -14 -47 2 -1 28 -9 58 -18 l55 -16 36 37 c19 21 59 65 89 98 50 56 154
171 243 269 20 22 60 77 87 122 l49 81 -14 46 c-28 94 15 181 118 241 23 14
53 27 67 31 20 5 64 73 224 341 110 184 203 333 208 332 4 -2 139 -221 299
-488 160 -267 294 -488 297 -491 6 -5 339 84 348 94 2 1 -74 131 -168 287 -94
157 -178 299 -188 315 -10 17 -66 110 -125 208 l-107 177 51 49 c152 147 118
353 -78 469 -49 29 -173 72 -207 72 -12 0 -24 6 -26 13 -4 10 -3 147 1 168 1
4 21 5 46 4 l45 -2 0 209 c0 242 -3 253 -78 290 -51 26 -134 34 -184 18z"/>
<path d="M2343 502 c-89 -26 -164 -50 -167 -53 -3 -3 47 -92 112 -199 108
-179 121 -196 163 -218 93 -47 236 -21 280 52 33 55 29 68 -80 246 -5 8 -37
61 -70 118 -34 56 -65 102 -69 102 -4 -1 -80 -22 -169 -48z"/>
</g>
</svg>
