<svg width="223" height="71" viewBox="0 0 223 71" fill="none" xmlns="http://www.w3.org/2000/svg">
<rect x="0.656494" width="222" height="71" fill="white"/>
<path d="M24.8145 38.5059L27.252 31.4688H28.4824L25.3184 40H24.3223L21.1641 31.4688H22.3887L24.8145 38.5059ZM33.2379 40H32.1129V31.4688H33.2379V40ZM42.5227 36.0566H38.8254V39.0801H43.1203V40H37.7004V31.4688H43.0617V32.3945H38.8254V35.1367H42.5227V36.0566ZM48.7605 37.3105L48.9246 38.4355L49.1648 37.4219L50.8523 31.4688H51.8016L53.448 37.4219L53.6824 38.4531L53.8641 37.3047L55.1883 31.4688H56.3191L54.2508 40H53.2254L51.4676 33.7832L51.3328 33.1328L51.198 33.7832L49.3758 40H48.3504L46.2879 31.4688H47.4129L48.7605 37.3105ZM66.4746 36.6602V40H65.3496V31.4688H68.4961C69.4297 31.4688 70.1602 31.707 70.6875 32.1836C71.2188 32.6602 71.4844 33.291 71.4844 34.0762C71.4844 34.9043 71.2246 35.543 70.7051 35.9922C70.1895 36.4375 69.4492 36.6602 68.4844 36.6602H66.4746ZM66.4746 35.7402H68.4961C69.0977 35.7402 69.5586 35.5996 69.8789 35.3184C70.1992 35.0332 70.3594 34.623 70.3594 34.0879C70.3594 33.5801 70.1992 33.1738 69.8789 32.8691C69.5586 32.5645 69.1191 32.4062 68.5605 32.3945H66.4746V35.7402ZM78.4488 36.5488H76.4449V40H75.3141V31.4688H78.1383C79.0992 31.4688 79.8375 31.6875 80.3531 32.125C80.8727 32.5625 81.1324 33.1992 81.1324 34.0352C81.1324 34.5664 80.9879 35.0293 80.6988 35.4238C80.4137 35.8184 80.0152 36.1133 79.5035 36.3086L81.5074 39.9297V40H80.3004L78.4488 36.5488ZM76.4449 35.6289H78.1734C78.732 35.6289 79.1754 35.4844 79.5035 35.1953C79.8355 34.9062 80.0016 34.5195 80.0016 34.0352C80.0016 33.5078 79.8434 33.1035 79.527 32.8223C79.2145 32.541 78.7613 32.3984 78.1676 32.3945H76.4449V35.6289ZM91.677 36.0098C91.677 36.8457 91.5363 37.5762 91.2551 38.2012C90.9738 38.8223 90.5754 39.2969 90.0598 39.625C89.5441 39.9531 88.9426 40.1172 88.2551 40.1172C87.5832 40.1172 86.9875 39.9531 86.468 39.625C85.9484 39.293 85.5441 38.8223 85.2551 38.2129C84.9699 37.5996 84.8234 36.8906 84.8156 36.0859V35.4707C84.8156 34.6504 84.9582 33.9258 85.2434 33.2969C85.5285 32.668 85.9309 32.1875 86.4504 31.8555C86.9738 31.5195 87.5715 31.3516 88.2434 31.3516C88.927 31.3516 89.5285 31.5176 90.048 31.8496C90.5715 32.1777 90.9738 32.6562 91.2551 33.2852C91.5363 33.9102 91.677 34.6387 91.677 35.4707V36.0098ZM90.5578 35.459C90.5578 34.4473 90.3547 33.6719 89.9484 33.1328C89.5422 32.5898 88.9738 32.3184 88.2434 32.3184C87.5324 32.3184 86.9719 32.5898 86.5617 33.1328C86.1555 33.6719 85.9465 34.4219 85.9348 35.3828V36.0098C85.9348 36.9902 86.1398 37.7617 86.55 38.3242C86.9641 38.8828 87.5324 39.1621 88.2551 39.1621C88.9816 39.1621 89.5441 38.8984 89.9426 38.3711C90.341 37.8398 90.5461 37.0801 90.5578 36.0918V35.459ZM99.3387 31.4688H100.47V37.5098C100.47 38.3262 100.223 38.9648 99.7312 39.4258C99.243 39.8867 98.5906 40.1172 97.7742 40.1172C96.9266 40.1172 96.2664 39.9004 95.7937 39.4668C95.3211 39.0332 95.0848 38.4258 95.0848 37.6445H96.2098C96.2098 38.1328 96.3426 38.5137 96.6082 38.7871C96.8777 39.0605 97.2664 39.1973 97.7742 39.1973C98.2391 39.1973 98.6141 39.0508 98.8992 38.7578C99.1883 38.4648 99.3348 38.0547 99.3387 37.5273V31.4688ZM109.608 36.0566H105.911V39.0801H110.205V40H104.786V31.4688H110.147V32.3945H105.911V35.1367H109.608V36.0566ZM120.281 37.293C120.176 38.1953 119.842 38.8926 119.279 39.3848C118.721 39.873 117.977 40.1172 117.047 40.1172C116.039 40.1172 115.23 39.7559 114.621 39.0332C114.016 38.3105 113.713 37.3438 113.713 36.1328V35.3125C113.713 34.5195 113.854 33.8223 114.135 33.2207C114.42 32.6191 114.822 32.1582 115.342 31.8379C115.861 31.5137 116.463 31.3516 117.146 31.3516C118.053 31.3516 118.779 31.6055 119.326 32.1133C119.873 32.6172 120.191 33.3164 120.281 34.2109H119.15C119.053 33.5312 118.84 33.0391 118.512 32.7344C118.188 32.4297 117.732 32.2773 117.146 32.2773C116.428 32.2773 115.863 32.543 115.453 33.0742C115.047 33.6055 114.844 34.3613 114.844 35.3418V36.168C114.844 37.0938 115.037 37.8301 115.424 38.377C115.811 38.9238 116.352 39.1973 117.047 39.1973C117.672 39.1973 118.15 39.0566 118.482 38.7754C118.818 38.4902 119.041 37.9961 119.15 37.293H120.281ZM129.941 32.3945H127.199V40H126.08V32.3945H123.343V31.4688H129.941V32.3945Z" fill="#333333"/>
<path fill-rule="evenodd" clip-rule="evenodd" d="M152 35.5C152 35.2239 152.224 35 152.5 35L168.5 35C168.776 35 169 35.2239 169 35.5C169 35.7761 168.776 36 168.5 36L152.5 36C152.224 36 152 35.7761 152 35.5Z" fill="#333333"/>
<path fill-rule="evenodd" clip-rule="evenodd" d="M164.646 31.6464C164.842 31.4512 165.158 31.4512 165.354 31.6464L169.207 35.5L165.354 39.3536C165.158 39.5488 164.842 39.5488 164.646 39.3536C164.451 39.1583 164.451 38.8417 164.646 38.6464L167.793 35.5L164.646 32.3536C164.451 32.1583 164.451 31.8417 164.646 31.6464Z" fill="#333333"/>
</svg>
